<svg width="14" height="12" viewBox="0 0 14 12" fill="none" xmlns="http://www.w3.org/2000/svg">
<path fill-rule="evenodd" clip-rule="evenodd" d="M1.39995 7.49999C0.626784 7.49999 -4.52113e-07 6.82843 -5.24538e-07 5.99998C-5.96964e-07 5.17153 0.626783 4.49998 1.39995 4.49998L9.2203 4.49998L7.41031 2.56062C6.86363 1.97487 6.86363 1.02506 7.41031 0.439313C7.95713 -0.146439 8.84344 -0.146439 9.39025 0.439313L13.5901 4.93933C13.8526 5.22058 14 5.60218 14 5.99998C14 6.39778 13.8526 6.77938 13.5901 7.06063L9.39026 11.5607C8.84344 12.1464 7.95713 12.1464 7.41031 11.5607C6.86363 10.9749 6.86363 10.0251 7.41031 9.43933L9.2203 7.49998L1.39995 7.49999Z" fill="#243443"/>
</svg>
