<svg width="26" height="18" viewBox="0 0 26 18" fill="none" xmlns="http://www.w3.org/2000/svg">
<path d="M26 12.5H0.333364V17.75H26V12.5Z" fill="#F44336"/>
<path d="M26 5.5H0.333364V12.5H26V5.5Z" fill="#ECEFF1"/>
<path d="M26 0.25H0.333364V5.5H26V0.25Z" fill="#4CAF50"/>
<path d="M11.9393 6.59725C11.9393 6.59725 9.7617 8.30117 11.363 10.75C9.85504 9.82775 9.72437 7.29317 11.9393 6.59725ZM13.1666 6.59959C13.5131 6.991 14.1093 6.6025 13.904 6.17609C13.5458 6.81892 13.1666 6.30034 13.1666 6.30034C13.1666 6.30034 12.7875 6.81892 12.4293 6.17609C12.2234 6.6025 12.8201 6.991 13.1666 6.59959Z" fill="#D32F2F"/>
<path d="M13.1667 11.9062L13.4164 11.5807C13.4164 11.5807 14.0032 11.7755 14.775 11.5066C14.1426 11.5066 13.788 11.3946 13.6585 11.3281C13.6585 11.3281 15.0917 10.5552 15.0637 8.98251C14.9797 7.39059 14.1327 6.90584 14.1327 6.90584C14.1327 6.90584 15.6406 9.10267 13.4257 10.939L13.5225 8.66692V6.99917C13.3971 6.97001 13.1667 6.70459 13.1667 6.70459C13.1667 6.70459 12.9363 6.96942 12.8103 6.99917V8.66809L12.9089 10.9402C10.6928 9.10384 12.2001 6.90701 12.2001 6.90701C12.2001 6.90701 11.3525 7.39001 11.2691 8.98367C11.2417 10.5558 12.675 11.3293 12.675 11.3293C12.5449 11.394 12.1914 11.5078 11.5585 11.5078C12.3302 11.7767 12.917 11.5801 12.917 11.5801L13.1667 11.9062Z" fill="#D32F2F"/>
<path d="M14.3928 6.59723C14.3928 6.59723 16.5716 8.30115 14.9697 10.75C16.4782 9.82773 16.6089 7.29315 14.3928 6.59723Z" fill="#D32F2F"/>
</svg>
